<?xml version="1.0" ?><svg viewBox="0 0 64 64" xmlns="http://www.w3.org/2000/svg">
    <g fill="#fff">
        <path
            d="M61.6826,22.0932a4.4971,4.4971,0,0,0-6.36,0l-8.9615,8.9609a1.658,1.658,0,0,1-2.3447-2.3447L60.0918,12.6342A5.299,5.299,0,0,0,52.5981,5.14L37.71,20.0287a1.8891,1.8891,0,0,1-2.6714-2.6718l7.9043-7.9043A5.0368,5.0368,0,0,0,35.82,2.33L6.8223,31.3266A18.3911,18.3911,0,0,0,31.0532,58.9731a.9929.9929,0,0,0,.33-.22l.6147-.6143a10.3773,10.3773,0,0,0,.8189-.8193L61.6826,28.4536a4.4972,4.4972,0,0,0,0-6.36ZM60.2686,27.04,31.3872,55.9213l-.0088.0088-.7641.7637A16.3893,16.3893,0,0,1,7.7212,33.2426a.924.924,0,0,0,.1-.0869l.5942-.584a.8425.8425,0,0,0,.0869-.0967L37.2339,3.7436a3.037,3.037,0,1,1,4.2949,4.2949l-7.9043,7.9043a3.8889,3.8889,0,0,0,5.5,5.5L54.0122,6.5541A3.2992,3.2992,0,0,1,58.6777,11.22L42.6021,27.2953a3.6579,3.6579,0,0,0,0,5.1729,3.7436,3.7436,0,0,0,5.1728,0l8.9614-8.9609a2.5581,2.5581,0,0,1,3.5323,0,2.498,2.498,0,0,1,0,3.5322Z" />
        <path
            d="M30.6763,33.4428a.9964.9964,0,0,0,.707-.293l5.6328-5.6328a1,1,0,0,0-1.414-1.414l-5.6329,5.6328a1,1,0,0,0,.7071,1.707Z" />
        <path
            d="M36.1138,36.8559l-3.9949,3.9952a13.3193,13.3193,0,0,0-10.4942-9.2083l6.6858-6.6863a1,1,0,0,0-1.414-1.4141l-7.922,7.9225a13.3372,13.3372,0,1,0,13.6293,11.73l4.924-4.9245a1,1,0,0,0-1.414-1.4141ZM19.4106,56.0219a11.29,11.29,0,1,1,11.29-11.29A11.3025,11.3025,0,0,1,19.4106,56.0219Z" />
        <path
            d="M13.2656,41.684a3.0484,3.0484,0,1,0,3.0484,3.0479A3.0517,3.0517,0,0,0,13.2656,41.684Zm0,4.0967a1.0484,1.0484,0,1,1,1.0484-1.0488A1.05,1.05,0,0,1,13.2656,45.7807Z" />
        <path
            d="M23.5068,40.66A4.0728,4.0728,0,1,0,27.58,44.7319,4.077,4.077,0,0,0,23.5068,40.66Zm0,6.1455A2.0728,2.0728,0,1,1,25.58,44.7319,2.0749,2.0749,0,0,1,23.5068,46.8051Z" />
    </g>
</svg>
