<svg width="16" height="18" viewBox="0 0 16 18" fill="none" xmlns="http://www.w3.org/2000/svg">
<path d="M5.78422 2.25081C6.41789 2.88321 6.65995 3.80963 6.41789 4.67142C7.1973 4.20251 8.09078 3.95538 9.00072 3.95664H9.01973C10.3568 3.96044 11.6368 4.49779 12.5771 5.4483C13.3312 6.24038 14.5833 6.2708 15.3754 5.518C16.1675 4.76394 16.1979 3.51181 15.4451 2.71972C15.4261 2.69945 15.4071 2.68044 15.3868 2.66143C13.7076 0.963195 11.4201 0.00635691 9.03114 2.02266e-05H8.99692C7.20871 -0.00378178 5.46105 0.528499 3.97827 1.52716H4.03403C4.69051 1.52589 5.32038 1.78696 5.78422 2.25208V2.25081Z" fill="#1773EB"/>
<path d="M13.946 11.9992C13.4239 11.9992 12.922 12.2057 12.5519 12.5733C11.609 13.5111 10.3328 14.0383 9.0034 14.037H8.98439C8.07191 14.0358 7.17844 13.7848 6.39903 13.3109C6.45859 13.5263 6.48774 13.7494 6.48774 13.9724C6.48774 15.3399 5.38009 16.4475 4.01263 16.4475H3.948C5.42951 17.4563 7.17844 17.9975 8.97045 18H9.00467C11.3797 18.0038 13.6596 17.0634 15.3413 15.3867C16.117 14.6162 16.1233 13.3641 15.3528 12.5872C14.9814 12.2121 14.4745 12.0017 13.9473 12.0017V11.9992H13.946Z" fill="#E44F20"/>
<path d="M2.25984 12.2209C2.72242 11.7546 3.35356 11.4935 4.01004 11.496C4.23689 11.496 4.46247 11.5264 4.68046 11.5873C3.71855 9.9879 3.72235 7.98678 4.69059 6.3912C3.3713 6.75366 2.00891 5.97678 1.64772 4.65875C1.58942 4.44457 1.55901 4.22406 1.55901 4.00101V3.93384C-0.510551 6.97544 -0.52069 10.9714 1.53493 14.0231V13.9711C1.53239 13.3147 1.79347 12.6835 2.25984 12.2209Z" fill="#FFDA00"/>
<path d="M4.03407 1.96567C3.47138 1.96567 3.07724 2.19886 2.59945 2.67664C2.14448 3.13035 2.00127 3.52829 2 4.00101C2 5.12387 2.91248 6.03508 4.03534 6.03382C5.1582 6.03382 6.06942 5.12133 6.06815 3.99847C6.06815 2.87561 5.15693 1.96567 4.03407 1.96567Z" fill="#1773EB"/>
<path d="M1.97095 13.9737C1.97095 14.5351 2.20414 14.9305 2.68066 15.407C3.13563 15.862 3.5323 16.0065 4.00502 16.0077C5.12535 16.0039 6.03022 15.094 6.02642 13.9737C6.02262 12.8533 5.11267 11.9485 3.99235 11.9523C2.87456 11.9561 1.97095 12.8622 1.97095 13.98V13.9737Z" fill="#E44F20"/>
</svg>
